<svg xmlns="http://www.w3.org/2000/svg" version="1.1" xmlns:xlink="http://www.w3.org/1999/xlink" xmlns:svgjs="http://svgjs.dev/svgjs" width="1000" height="1000" viewBox="0 0 1000 1000"><g transform="matrix(1,0,0,1,0.0008207424864963286,0)"><svg viewBox="0 0 280 280" data-background-color="#ffffff" preserveAspectRatio="xMidYMid meet" height="1000" width="1000" xmlns="http://www.w3.org/2000/svg" xmlns:xlink="http://www.w3.org/1999/xlink"><g id="tight-bounds" transform="matrix(1,0,0,1,0.00022980789623261444,0)"><svg viewBox="0 0 280 280" height="280" width="280"><g><svg viewBox="0 0 280 280" height="280" width="280"><g><svg viewBox="0 0 280 280" height="280" width="280"><g id="textblocktransform"><svg viewBox="0 0 280 280" height="280" width="280" id="textblock"><g><svg viewBox="0 0 280 280" height="280" width="280"><g transform="matrix(1,0,0,1,57.50420886156945,57.50420886156945)"><svg viewBox="0 0 164.9915822768611 164.9915822768611" height="164.9915822768611" width="164.9915822768611"><g><circle r="82" cx="82.49579113843055" cy="82.49579113843055" fill="#1153ae" data-fill-palette-color="accent"></circle><svg xmlns="http://www.w3.org/2000/svg" xmlns:xlink="http://www.w3.org/1999/xlink" version="1.1" x="24.74873734152917" y="24.748737341529164" viewBox="5.361915579507429 0.45000000000000007 62.23235633049173 72.04999999999998" enable-background="new 0 0 73 73" xml:space="preserve" height="115.49410759380275" width="115.49410759380275" class="icon-kg-0" data-fill-palette-color="quaternary" id="kg-0"><g fill="#fdfcfc" data-fill-palette-color="quaternary"><path d="M48.9 32.8V15.9h2.2c1.9 0 2.7-2.3 1.2-3.6L37.7 0.9c-0.7-0.6-1.7-0.6-2.5 0L20.7 12.3c-1.6 1.2-0.6 3.6 1.2 3.6h2.2v16.9l-6.1 37.4c-0.1 0.6 0.1 1.2 0.5 1.6 0.4 0.4 0.9 0.7 1.5 0.7H53c0 0 0 0 0 0 1.1 0 2-0.9 2-2 0-0.2 0-0.4-0.1-0.6L48.9 32.8zM36.5 5l8.8 6.9H27.7L36.5 5zM44.9 15.9V31H28.1V15.9H44.9zM40.6 68.5h-8.2v-7.7c0-2.3 1.8-4.1 4.1-4.1 2.3 0 4.1 1.8 4.1 4.1V68.5zM44.6 68.5v-7.7c0-4.5-3.6-8.1-8.1-8.1-4.5 0-8.1 3.6-8.1 8.1v7.7h-6l2.9-17.7h3.5c1.1 0 2-0.9 2-2s-0.9-2-2-2h-2.8l0.6-4h6.2c1.1 0 2-0.9 2-2 0-1.1-0.9-2-2-2h-5.5l0.6-3.8h17.3l5.4 33.5H44.6z" fill="#fdfcfc" data-fill-palette-color="quaternary"></path><path d="M60.1 20.6l6.2-2.5c1-0.4 1.5-1.6 1.1-2.6-0.4-1-1.6-1.5-2.6-1.1l-6.2 2.5c-1 0.4-1.5 1.6-1.1 2.6C57.9 20.5 59 20.9 60.1 20.6z" fill="#fdfcfc" data-fill-palette-color="quaternary"></path><path d="M66.3 28.8l-6.2-2.5c-1.1-0.4-2.2 0.1-2.6 1.1-0.4 1 0.1 2.2 1.1 2.6l6.2 2.5c1 0.4 2.2-0.1 2.6-1.1C67.9 30.4 67.4 29.2 66.3 28.8z" fill="#fdfcfc" data-fill-palette-color="quaternary"></path><path d="M14.3 16.8l-6.2-2.5c-1-0.4-2.2 0.1-2.6 1.1-0.4 1 0.1 2.2 1.1 2.6l6.2 2.5c1.1 0.4 2.2-0.1 2.6-1.1C15.9 18.4 15.4 17.2 14.3 16.8z" fill="#fdfcfc" data-fill-palette-color="quaternary"></path><path d="M12.9 26.4l-6.2 2.5c-1 0.4-1.5 1.6-1.1 2.6 0.4 1 1.6 1.5 2.6 1.1l6.2-2.5c1-0.4 1.5-1.6 1.1-2.6C15.1 26.4 14 26 12.9 26.4z" fill="#fdfcfc" data-fill-palette-color="quaternary"></path></g></svg></g></svg></g><g><path d="M17.286 104.438l-4.906-1.866-3.991-1.432-1.682-0.64c-1.246-0.474-2.167-0.781-2.762-0.922-0.589-0.138-1.147 0.006-1.673 0.434-0.526 0.427-0.908 0.917-1.147 1.468-0.241 0.557-0.526 0.773-0.856 0.647-0.324-0.123-0.356-0.527-0.095-1.212v0l1.64-4.115 1.136-3.184c0.156-0.411 0.393-0.556 0.711-0.435v0c0.143 0.054 0.222 0.288 0.237 0.7 0.011 0.403 0.025 0.694 0.042 0.872v0c0.147 0.926 1.491 1.872 4.034 2.838v0l5.68 2.278c0.511 0.194 0.803 0.195 0.876 0.002 0.073-0.193-0.276-1.46-1.047-3.8-0.774-2.334-1.677-4.702-2.71-7.106-1.024-2.407-1.807-3.714-2.349-3.92v0c-0.293-0.111-0.54-0.063-0.74 0.146-0.205 0.2-0.348 0.353-0.431 0.457-0.085 0.11-0.187 0.267-0.307 0.471-0.123 0.21-0.202 0.333-0.237 0.37v0c-0.154 0.255-0.371 0.329-0.652 0.223-0.28-0.107-0.346-0.356-0.197-0.749v0l0.377-0.905 0.913-2.177 1.624-4.581c0.185-0.486 0.436-0.668 0.754-0.547v0c0.168 0.064 0.269 0.184 0.302 0.36 0.024 0.18 0.02 0.5-0.012 0.958-0.034 0.465-0.05 0.815-0.047 1.052 0.007 0.245 0.149 1.034 0.427 2.366v0c0.058 0.279 0.593 1.862 1.606 4.75 1.019 2.89 2.081 5.929 3.186 9.116v0l0.361 0.598c0.125 0.047 0.674-0.15 1.648-0.593 0.978-0.434 3.26-1.466 6.847-3.097 3.58-1.633 5.984-2.787 7.21-3.462 1.222-0.683 2.05-1.406 2.483-2.169 0.424-0.759 0.755-1.15 0.991-1.173v0c0.053-0.008 0.161 0.018 0.323 0.079 0.156 0.059 0.218 0.204 0.188 0.435-0.028 0.225-0.233 0.838-0.615 1.842v0l-1.35 3.551c-0.149 0.392-0.376 0.641-0.68 0.747-0.306 0.112-0.596 0.226-0.869 0.343v0c-1.39 0.505-2.425 0.91-3.104 1.216v0c-7.221 3.18-10.991 4.862-11.311 5.047v0c-0.326 0.183-0.527 0.374-0.603 0.573v0c-0.128 0.336 0.138 0.63 0.799 0.881v0l0.112 0.043 0.852 0.292 1.869 0.71c3.202 1.218 5.244 1.755 6.125 1.613 0.875-0.145 1.535-0.803 1.981-1.974v0l0.147-0.276c0.066-0.174 0.175-0.329 0.327-0.464 0.154-0.141 0.327-0.175 0.52-0.102v0c0.343 0.13 0.398 0.501 0.165 1.112v0l-1.475 3.428-1.345 4.099c-0.334 0.878-0.635 1.267-0.902 1.165v0l-0.15-0.057c-0.168-0.064-0.248-0.219-0.24-0.466v0c0.125-0.986 0.098-1.674-0.082-2.063-0.174-0.387-0.861-0.859-2.061-1.415-1.2-0.556-3.156-1.35-5.865-2.38z" fill="#094aa5" data-fill-palette-color="primary"></path><path d="M42.927 74.549c-1.219 0.536-2.511 0.709-3.876 0.519-1.365-0.19-2.56-0.662-3.587-1.414-1.021-0.749-1.753-1.504-2.194-2.265-0.447-0.766-0.701-1.485-0.762-2.157-0.051-0.674-0.043-1.3 0.025-1.878 0.067-0.587 0.148-1.065 0.244-1.433 0.091-0.372 0.114-0.573 0.071-0.604-0.038-0.028-0.319 0.052-0.843 0.237-0.53 0.182-1.123 0.371-1.779 0.567-0.662 0.193-1.465 0.228-2.409 0.107-0.949-0.125-1.824-0.482-2.625-1.069v0c-1.624-1.19-2.564-2.714-2.822-4.572-0.258-1.858 0.251-3.658 1.528-5.4 1.273-1.736 2.752-2.751 4.437-3.044 1.687-0.284 3.289 0.13 4.805 1.24v0c1.392 1.02 2.214 2.155 2.463 3.404v0c0.178 0.817 0.246 1.531 0.202 2.144-0.048 0.618-0.05 0.942-0.007 0.974v0c0.086 0.063 0.43-0.028 1.031-0.274 0.597-0.24 1.272-0.489 2.023-0.748 0.757-0.255 1.681-0.321 2.773-0.199 1.096 0.117 2.119 0.524 3.071 1.222v0c1.726 1.265 2.861 2.94 3.408 5.026 0.546 2.086 0.038 4.193-1.522 6.321v0c-1.221 1.667-2.44 2.765-3.655 3.296zM36.182 72.048v0c1.581 1.158 3.245 1.605 4.992 1.341 1.749-0.255 3.187-1.152 4.314-2.689 1.131-1.543 1.511-3.049 1.142-4.518-0.364-1.465-1.165-2.651-2.401-3.557-1.231-0.902-2.999-1.078-5.303-0.527-2.295 0.549-3.698 1.173-4.211 1.872v0c-0.386 0.527-0.66 1.177-0.822 1.951-0.162 0.774-0.221 1.474-0.177 2.101 0.04 0.633 0.26 1.314 0.659 2.045 0.404 0.734 1.007 1.395 1.807 1.981zM25.104 55.588c-0.875 1.194-1.274 2.471-1.198 3.833 0.067 1.363 0.671 2.462 1.811 3.297 1.14 0.835 2.701 0.893 4.683 0.172 1.984-0.711 3.2-1.373 3.649-1.986 0.449-0.613 0.568-1.604 0.357-2.974-0.211-1.369-0.951-2.519-2.22-3.448v0c-0.844-0.619-2.015-0.886-3.514-0.803-1.504 0.079-2.694 0.716-3.568 1.909z" fill="#094aa5" data-fill-palette-color="primary"></path><path d="M57.233 36.535v0l1.671 1.674c0.289 0.332 0.446 0.593 0.47 0.783 0.025 0.181-0.037 0.338-0.188 0.469-0.146 0.127-0.427 0.124-0.843-0.008-0.415-0.142-0.873-0.292-1.372-0.449-0.499-0.157-1.103-0.175-1.81-0.054-0.717 0.121-1.369 0.437-1.957 0.95-0.593 0.517-0.951 1.08-1.073 1.691-0.132 0.61-0.051 1.083 0.242 1.419 0.293 0.337 0.56 0.582 0.8 0.736 0.24 0.153 0.5 0.245 0.782 0.273 0.286 0.034 0.53 0.055 0.732 0.065 0.207 0.014 0.491-0.03 0.853-0.133 0.357-0.108 0.62-0.191 0.789-0.25 0.174-0.064 0.458-0.165 0.85-0.303v0c2.346-0.93 4.035-1.319 5.069-1.168 1.038 0.156 2.045 0.795 3.022 1.915 0.981 1.126 1.36 2.616 1.138 4.472v0c-0.174 1.23-0.882 2.386-2.124 3.468v0c-0.849 0.74-1.976 1.355-3.379 1.844v0c-0.397 0.143-0.625 0.231-0.684 0.265-0.059 0.034-0.159 0.076-0.3 0.128-0.146 0.056-0.248 0.101-0.307 0.135-0.059 0.034-0.144 0.063-0.254 0.088-0.111 0.035-0.195 0.05-0.251 0.047-0.056-0.004-0.131-0.018-0.224-0.044v0c-0.138-0.047-0.304-0.182-0.496-0.402v0l-2.24-2.571c-0.188-0.216-0.303-0.434-0.345-0.654-0.041-0.23 0.017-0.412 0.173-0.548 0.161-0.14 0.313-0.193 0.457-0.16 0.149 0.029 0.372 0.153 0.669 0.372 0.301 0.224 0.532 0.372 0.692 0.444v0c2.314 1.175 4.13 1.189 5.447 0.042v0c0.613-0.534 1.054-1.205 1.322-2.014 0.263-0.804 0.09-1.555-0.519-2.253-0.609-0.699-1.327-1.067-2.156-1.105-0.833-0.043-1.681 0.095-2.544 0.413-0.868 0.323-1.742 0.634-2.622 0.932-0.885 0.303-1.782 0.39-2.689 0.261-0.908-0.129-1.703-0.585-2.386-1.368v0c-0.963-1.106-1.291-2.38-0.985-3.824 0.298-1.444 0.979-2.63 2.045-3.558 1.065-0.928 1.946-1.546 2.643-1.852 0.697-0.316 1.16-0.454 1.389-0.415 0.228 0.049 0.393 0.131 0.493 0.247z" fill="#094aa5" data-fill-palette-color="primary"></path><path d="M100.646 2.336v0l0.76-0.588c0.315-0.108 0.532-0.073 0.649 0.105v0c1.551 2.815 2.417 4.487 2.599 5.017 0.182 0.53 0.099 0.854-0.247 0.972v0c-0.227 0.078-0.535-0.112-0.926-0.57-0.39-0.458-0.803-0.862-1.24-1.213-0.437-0.35-0.74-0.564-0.907-0.64-0.169-0.083-0.593-0.269-1.269-0.558v0c-1.745-0.733-3.475-0.805-5.191-0.216-1.721 0.591-2.974 1.436-3.759 2.537-0.779 1.099-0.965 2.241-0.558 3.426 0.407 1.185 1.036 2.033 1.888 2.544 0.852 0.511 1.852 0.788 3.002 0.83 1.151 0.049 2.341 0.056 3.57 0.023v0c3.311-0.086 5.943 0.378 7.897 1.391v0c1.355 0.726 2.305 1.88 2.848 3.462v0c0.891 2.597 0.769 4.94-0.368 7.028-1.137 2.088-2.928 3.552-5.374 4.392v0c-1.708 0.586-3.111 0.965-4.208 1.137-1.105 0.168-2.297 0.154-3.576-0.041v0c-0.389-0.085-1.104-0.918-2.147-2.497-1.04-1.574-1.635-2.578-1.784-3.014-0.149-0.435-0.057-0.71 0.277-0.824 0.334-0.115 0.582-0.059 0.744 0.167v0c1.669 1.887 3.278 3.075 4.828 3.565v0c1.683 0.55 3.47 0.501 5.361-0.148 1.891-0.649 3.231-1.652 4.02-3.008 0.793-1.364 0.918-2.838 0.376-4.42v0c-0.4-1.166-1.118-2.005-2.154-2.517-1.031-0.52-2.101-0.783-3.209-0.79v0c-4.106 0.028-6.945-0.115-8.519-0.428v0c-2.709-0.564-4.45-1.972-5.222-4.222-0.772-2.251-0.588-4.312 0.552-6.183 1.143-1.865 2.988-3.234 5.535-4.108v0c0.939-0.322 2.128-0.505 3.565-0.547 1.433-0.034 2.162-0.055 2.187-0.064z" fill="#094aa5" data-fill-palette-color="primary"></path><path d="M133.001 25.075c-2.293 0.171-4.293-0.389-5.999-1.679-1.707-1.29-2.659-3.271-2.859-5.943-0.199-2.672 0.373-4.964 1.715-6.875 1.335-1.904 3.176-2.943 5.522-3.117v0c1.097-0.082 2.108 0.04 3.035 0.365 0.926 0.325 1.66 0.749 2.2 1.27 0.533 0.522 0.993 1.082 1.378 1.682v0c0.658 1.027 1.007 1.813 1.048 2.359v0c0.035 0.472-0.482 0.748-1.553 0.827v0l-10.05 0.747c-0.206 0.015-0.328 0.044-0.364 0.088-0.037 0.043-0.048 0.167-0.032 0.373v0c0.182 2.453 0.984 4.335 2.404 5.646 1.42 1.305 3.018 1.891 4.793 1.759v0c1.09-0.081 2.182-0.456 3.275-1.126 1.086-0.669 1.656-1.005 1.709-1.009v0c0.266-0.02 0.407 0.087 0.425 0.319v0c0.023 0.312-0.234 0.759-0.772 1.341-0.532 0.574-1.045 1.05-1.538 1.427v0c-1.196 0.904-2.641 1.42-4.337 1.546zM127.678 13.751v0l6.871-0.751c0.359-0.027 0.583-0.073 0.672-0.141 0.088-0.073 0.125-0.203 0.111-0.389v0c-0.058-0.778-0.491-1.661-1.3-2.65-0.809-0.989-1.865-1.435-3.167-1.338-1.303 0.097-2.268 0.687-2.896 1.769-0.628 1.083-0.908 2.079-0.841 2.99v0c0.027 0.366 0.21 0.536 0.55 0.51z" fill="#094aa5" data-fill-palette-color="primary"></path><path d="M159.529 26.105v0l-2.795-0.668c-0.669-0.121-1.559-0.255-2.67-0.402v0l-1.677-0.223c-0.387-0.07-0.56-0.22-0.518-0.449 0.043-0.236 0.134-0.365 0.273-0.387 0.134-0.03 0.302-0.04 0.503-0.031 0.195 0.008 0.396-0.037 0.604-0.135v0c0.541-0.22 0.979-1.103 1.312-2.648 0.334-1.545 0.545-2.563 0.635-3.055v0l1.006-5.558c0.148-0.82 0.101-1.397-0.144-1.733-0.244-0.335-0.625-0.55-1.143-0.644v0l-0.384-0.069c-0.485-0.088-0.702-0.273-0.651-0.555v0c0.047-0.262 0.353-0.38 0.917-0.352 0.565 0.021 1.017 0.015 1.355-0.019 0.338-0.034 0.792-0.111 1.362-0.231 0.564-0.121 1.021-0.232 1.371-0.331 0.349-0.093 0.575-0.13 0.68-0.111v0l0.079 0.014c0.23 0.042 0.316 0.216 0.261 0.525v0l-0.378 1.639c-0.121 0.669-0.129 1.013-0.024 1.032 0.098 0.018 0.211-0.026 0.338-0.132v0c0.485-0.474 1.084-0.844 1.796-1.108v0c1.285-0.512 2.455-0.673 3.511-0.482 1.056 0.191 1.965 0.522 2.727 0.992 0.768 0.471 1.342 0.985 1.722 1.541 0.372 0.562 0.657 1.179 0.854 1.851v0c0.332 1.123 0.4 2.226 0.204 3.309v0l-0.07 0.383-0.331 2.054-0.712 3.935c-0.177 0.977-0.164 1.674 0.038 2.09 0.201 0.423 0.802 0.806 1.804 1.149v0c0.497 0.171 0.718 0.411 0.662 0.719v0c-0.046 0.256-0.325 0.337-0.837 0.245v0l-3.132-0.77-2.999-0.38c-0.512-0.093-0.737-0.306-0.677-0.641v0c0.042-0.23 0.224-0.356 0.546-0.379v0l0.523-0.027c0.596-0.075 1.034-0.886 1.315-2.434v0l0.942-5.204c0.359-1.981 0.141-3.568-0.652-4.762-0.793-1.193-1.806-1.902-3.04-2.125-1.233-0.223-2.316-0.114-3.249 0.327-0.928 0.448-1.53 0.912-1.806 1.39-0.271 0.486-0.716 2.438-1.334 5.854v0l-0.266 1.466c-0.233 1.285-0.27 2.261-0.113 2.926 0.157 0.665 0.691 1.121 1.602 1.367v0c0.256 0.046 0.575 0.152 0.959 0.316 0.383 0.164 0.557 0.348 0.52 0.551v0c-0.061 0.334-0.333 0.458-0.819 0.37z" fill="#094aa5" data-fill-palette-color="primary"></path><path d="M188.673 18.987v0l-0.696-0.256c-0.41-0.177-0.542-0.434-0.397-0.771v0c0.103-0.239 0.299-0.397 0.587-0.476v0c1.171-0.206 2.471-0.712 3.901-1.518v0c0.623-0.384 1.102-0.653 1.437-0.806 0.335-0.153 0.624-0.177 0.869-0.071 0.239 0.103 0.239 0.43 0.001 0.981v0c0 0-0.345 0.664-1.034 1.992v0c-0.143 0.33-0.163 0.561-0.06 0.693 0.097 0.129 0.506 0.349 1.228 0.661v0l1.258 0.543c1.083 0.468 1.77 0.692 2.062 0.672v0c0.527-0.027 0.836-0.02 0.928 0.02v0c0.239 0.103 0.301 0.286 0.187 0.549v0c-0.085 0.196-0.404 0.508-0.959 0.936-0.555 0.428-0.903 0.612-1.044 0.552v0c-1.083-0.468-1.828-0.818-2.235-1.053-0.413-0.237-0.688-0.391-0.824-0.464-0.142-0.076-0.262-0.142-0.36-0.199-0.105-0.06-0.182-0.1-0.231-0.122v0l-0.057-0.068c-0.453-0.196-0.778-0.249-0.977-0.16-0.189 0.085-0.394 0.382-0.612 0.89v0l-3.036 6.628c-0.674 1.56-0.944 2.732-0.81 3.516 0.127 0.781 0.828 1.446 2.1 1.995v0c0.508 0.219 1.117 0.348 1.826 0.386 0.71 0.038 1.086 0.066 1.129 0.084v0c0.245 0.106 0.3 0.315 0.165 0.627-0.135 0.312-0.729 0.545-1.783 0.7-1.048 0.157-2.052 0.029-3.013-0.386v0c-3.237-1.398-4.249-3.501-3.037-6.309v0l0.23-0.533 3.76-8.33c0.103-0.239 0.124-0.415 0.064-0.527-0.066-0.116-0.255-0.241-0.567-0.376z" fill="#094aa5" data-fill-palette-color="primary"></path><path d="M208.293 46.454l-2.27-1.606-2.366-1.479c-0.871-0.58-1.209-1.017-1.013-1.311 0.196-0.294 0.494-0.388 0.895-0.281v0c0.022 0.015 0.074 0.033 0.156 0.056v0c0.614 0.16 1.112 0.116 1.494-0.134 0.388-0.246 1.588-1.881 3.601-4.906v0l1.911-2.871c0.421-0.633 0.676-1.184 0.764-1.653 0.098-0.471 0.109-0.796 0.035-0.974-0.072-0.168-0.248-0.385-0.527-0.651-0.279-0.266-0.47-0.473-0.572-0.621-0.107-0.151-0.122-0.286-0.045-0.402 0.081-0.122 0.17-0.195 0.266-0.219 0.1-0.03 0.256-0.03 0.469 0 0.218 0.033 0.434 0.076 0.646 0.129v0c0.729 0.229 1.344 0.386 1.847 0.473 0.512 0.085 0.899 0.154 1.16 0.207 0.264 0.048 0.445 0.072 0.54 0.072v0c0.2 0.037 0.408 0.127 0.624 0.271v0c0.327 0.218 0.353 0.535 0.076 0.951v0l-1.241 1.432-5.955 8.947c-0.432 0.649-0.669 1.228-0.711 1.737-0.037 0.512 0.031 0.885 0.203 1.12 0.168 0.24 0.398 0.473 0.689 0.698 0.29 0.225 0.48 0.367 0.568 0.426v0c0.27 0.244 0.318 0.496 0.145 0.757v0c-0.244 0.366-0.549 0.427-0.915 0.184v0zM217.131 26.948c-0.438-0.292-0.66-0.771-0.664-1.438-0.013-0.665 0.078-1.145 0.274-1.439 0.196-0.294 0.637-0.549 1.325-0.764 0.693-0.211 1.209-0.204 1.547 0.021 0.338 0.225 0.521 0.667 0.547 1.325 0.032 0.662-0.068 1.167-0.301 1.517-0.233 0.35-0.695 0.599-1.386 0.747-0.7 0.15-1.148 0.161-1.342 0.031z" fill="#094aa5" data-fill-palette-color="primary"></path><path d="M223.709 60.103v0l-1.864-2.188c-0.469-0.492-1.109-1.125-1.92-1.899v0l-1.223-1.168c-0.271-0.285-0.322-0.508-0.154-0.668 0.174-0.166 0.323-0.216 0.449-0.152 0.126 0.055 0.268 0.146 0.425 0.272 0.153 0.122 0.342 0.204 0.567 0.247v0c0.567 0.141 1.441-0.314 2.621-1.365 1.18-1.051 1.952-1.749 2.314-2.094v0l4.089-3.897c0.603-0.575 0.905-1.069 0.906-1.484 0.001-0.415-0.181-0.813-0.544-1.194v0l-0.269-0.282c-0.34-0.357-0.407-0.634-0.199-0.833v0c0.193-0.184 0.509-0.098 0.948 0.257 0.444 0.35 0.813 0.611 1.106 0.783 0.293 0.172 0.705 0.378 1.237 0.617 0.527 0.234 0.961 0.415 1.302 0.541 0.336 0.131 0.541 0.235 0.615 0.311v0l0.055 0.058c0.161 0.169 0.128 0.361-0.099 0.578v0l-1.271 1.101c-0.492 0.469-0.702 0.742-0.628 0.819 0.069 0.072 0.186 0.103 0.351 0.093v0c0.672-0.097 1.373-0.042 2.104 0.164v0c1.34 0.344 2.38 0.904 3.12 1.681 0.74 0.777 1.279 1.58 1.618 2.408 0.343 0.833 0.504 1.587 0.482 2.26-0.03 0.673-0.164 1.34-0.401 1.999v0c-0.394 1.103-0.99 2.034-1.786 2.792v0l-0.283 0.269-1.478 1.464-2.895 2.758c-0.719 0.685-1.119 1.255-1.201 1.711-0.087 0.46 0.173 1.124 0.779 1.992v0c0.301 0.432 0.338 0.755 0.111 0.971v0c-0.188 0.179-0.462 0.081-0.82-0.295v0l-2.076-2.469-2.199-2.076c-0.359-0.376-0.415-0.682-0.168-0.916v0c0.169-0.161 0.39-0.156 0.664 0.016v0l0.439 0.287c0.526 0.291 1.358-0.106 2.496-1.192v0l3.829-3.648c1.457-1.389 2.217-2.799 2.281-4.23 0.063-1.432-0.338-2.601-1.203-3.508-0.864-0.907-1.803-1.458-2.817-1.653-1.014-0.185-1.773-0.165-2.278 0.058-0.505 0.233-2.015 1.547-4.529 3.943v0l-1.079 1.028c-0.946 0.901-1.551 1.667-1.816 2.296-0.265 0.63-0.102 1.313 0.488 2.049v0c0.179 0.188 0.375 0.462 0.588 0.82 0.213 0.359 0.245 0.609 0.095 0.752v0c-0.246 0.234-0.539 0.173-0.879-0.184z" fill="#094aa5" data-fill-palette-color="primary"></path><path d="M241.816 85.575c-1.141-1.996-1.497-4.043-1.067-6.138 0.43-2.096 1.808-3.808 4.134-5.138 2.326-1.33 4.641-1.8 6.943-1.412 2.293 0.386 4.024 1.6 5.191 3.643v0c0.546 0.955 0.871 1.92 0.977 2.897 0.105 0.976 0.039 1.82-0.2 2.532-0.241 0.706-0.55 1.362-0.925 1.968v0c-0.644 1.036-1.203 1.689-1.677 1.961v0c-0.411 0.235-0.883-0.114-1.415-1.045v0l-5.001-8.75c-0.103-0.179-0.181-0.277-0.236-0.291-0.055-0.015-0.172 0.029-0.351 0.131v0c-2.135 1.22-3.489 2.754-4.06 4.601-0.566 1.844-0.408 3.538 0.475 5.083v0c0.542 0.949 1.351 1.773 2.426 2.471 1.071 0.693 1.62 1.062 1.647 1.109v0c0.132 0.231 0.097 0.405-0.106 0.521v0c-0.272 0.155-0.786 0.115-1.542-0.12-0.747-0.233-1.398-0.491-1.951-0.774v0c-1.331-0.69-2.418-1.773-3.262-3.249zM249.746 75.896v0l3.636 5.879c0.179 0.312 0.317 0.494 0.415 0.545 0.104 0.048 0.237 0.026 0.4-0.067v0c0.677-0.387 1.288-1.158 1.832-2.314 0.545-1.156 0.493-2.301-0.155-3.435-0.648-1.134-1.596-1.752-2.844-1.852-1.248-0.101-2.268 0.075-3.06 0.528v0c-0.318 0.182-0.393 0.42-0.224 0.716z" fill="#094aa5" data-fill-palette-color="primary"></path><path d="M255.301 102.744l2.758-0.896 15.9-4.995c0.571-0.185 1.053-0.447 1.448-0.786 0.403-0.334 0.618-0.632 0.646-0.893 0.023-0.253-0.09-0.763-0.339-1.529v0c-0.091-0.279-0.047-0.447 0.13-0.505 0.171-0.056 0.301-0.077 0.389-0.064 0.088 0.013 0.185 0.073 0.29 0.18 0.096 0.102 0.198 0.233 0.307 0.394v0c0.387 0.673 0.892 1.333 1.515 1.978v0c0.966 1.032 1.509 1.735 1.63 2.109v0c0.097 0.298-0.093 0.524-0.568 0.679v0c-0.095 0.031-0.389 0.098-0.88 0.202v0c-1.512 0.33-3.139 0.778-4.883 1.343v0l-2.082 0.677-4.988 1.536-11.116 3.609c-0.52 0.169-0.933 0.352-1.241 0.55-0.309 0.192-0.54 0.582-0.692 1.171-0.154 0.583-0.089 1.311 0.195 2.186v0c0.039 0.12 0.012 0.252-0.082 0.395-0.088 0.141-0.195 0.231-0.321 0.273v0c-0.349 0.113-0.649-0.217-0.9-0.991v0l-0.957-3.852c-0.21-0.647-0.46-1.245-0.751-1.795-0.291-0.55-0.467-0.92-0.529-1.111-0.06-0.184-0.064-0.347-0.012-0.49 0.054-0.137 0.147-0.227 0.28-0.27 0.139-0.045 0.271-0.028 0.395 0.051 0.119 0.087 0.245 0.246 0.376 0.477v0c0.446 0.682 0.895 1.03 1.348 1.044 0.461 0.018 1.054-0.09 1.776-0.324v0z" fill="#094aa5" data-fill-palette-color="primary"></path><path d="M21.519 178.862l5.183-2.009 4.157-1.696 1.78-0.69c1.318-0.511 2.256-0.921 2.815-1.23 0.568-0.306 0.907-0.813 1.019-1.521 0.109-0.714 0.062-1.371-0.142-1.972-0.206-0.606-0.135-0.977 0.213-1.111 0.348-0.135 0.662 0.158 0.941 0.879v0l1.623 4.41 1.364 3.299c0.169 0.435 0.085 0.718-0.25 0.848v0c-0.155 0.06-0.383-0.066-0.683-0.379-0.3-0.313-0.517-0.532-0.652-0.658v0c-0.777-0.621-2.508-0.411-5.193 0.628v0l-6.084 2.229c-0.541 0.21-0.771 0.417-0.692 0.622 0.079 0.205 1.252 0.952 3.517 2.24 2.265 1.288 4.655 2.514 7.171 3.676 2.516 1.162 4.057 1.634 4.623 1.415v0c0.311-0.12 0.476-0.331 0.495-0.632 0.011-0.304 0.011-0.526 0-0.664-0.007-0.147-0.037-0.343-0.089-0.588-0.054-0.251-0.079-0.406-0.073-0.465v0c-0.055-0.308 0.064-0.518 0.356-0.631 0.298-0.116 0.528 0.035 0.69 0.451v0l0.334 0.975 0.829 2.359 1.972 4.758c0.2 0.516 0.132 0.839-0.203 0.969v0c-0.18 0.07-0.347 0.045-0.501-0.074-0.147-0.122-0.372-0.378-0.673-0.769-0.299-0.384-0.535-0.672-0.709-0.862-0.178-0.181-0.847-0.701-2.009-1.559v0c-0.244-0.17-1.787-1.034-4.628-2.591-2.845-1.55-5.836-3.189-8.972-4.919v0l-0.703-0.21c-0.124 0.048-0.418 0.591-0.881 1.628-0.454 1.041-1.514 3.471-3.18 7.29-1.672 3.821-2.746 6.436-3.223 7.843-0.479 1.401-0.619 2.552-0.42 3.454 0.199 0.902 0.216 1.442 0.05 1.621v0c-0.038 0.05-0.14 0.108-0.308 0.173-0.168 0.065-0.323-0.004-0.466-0.205-0.134-0.198-0.406-0.826-0.815-1.882v0l-1.456-3.757c-0.159-0.41-0.155-0.769 0.012-1.077 0.163-0.299 0.307-0.591 0.432-0.875v0c0.742-1.388 1.27-2.44 1.587-3.156v0c3.431-7.62 5.206-11.617 5.325-11.992v0c0.119-0.375 0.139-0.665 0.059-0.87v0c-0.14-0.36-0.558-0.406-1.253-0.136v0l-0.112 0.043-0.881 0.384-1.967 0.762c-3.381 1.31-5.368 2.334-5.961 3.071-0.59 0.729-0.644 1.715-0.162 2.958v0l0.072 0.326c0.07 0.18 0.096 0.377 0.079 0.591-0.023 0.216-0.138 0.364-0.342 0.444v0c-0.36 0.14-0.666-0.114-0.917-0.76v0l-1.265-3.735-1.846-4.184c-0.359-0.926-0.395-1.444-0.11-1.555v0l0.15-0.058c0.18-0.07 0.355-0.005 0.525 0.193v0c0.601 0.868 1.107 1.39 1.518 1.567 0.414 0.183 1.288 0.069 2.624-0.341 1.339-0.419 3.441-1.183 6.305-2.293z" fill="#094aa5" data-fill-palette-color="primary"></path><path d="M29.799 220.82c-0.164-1.391 0.066-2.751 0.688-4.079 0.617-1.325 1.463-2.387 2.538-3.188 1.074-0.801 2.068-1.308 2.979-1.522 0.912-0.215 1.717-0.245 2.414-0.091 0.702 0.15 1.337 0.35 1.906 0.6 0.563 0.254 1.018 0.484 1.364 0.692 0.346 0.208 0.54 0.296 0.583 0.263 0.048-0.036 0.06-0.348 0.036-0.937-0.025-0.58-0.032-1.236-0.02-1.968 0.002-0.733 0.215-1.557 0.64-2.471 0.42-0.92 1.052-1.694 1.896-2.324v0c1.71-1.275 3.545-1.752 5.504-1.433 1.964 0.315 3.627 1.387 4.989 3.214 1.366 1.833 1.933 3.647 1.699 5.442-0.233 1.795-1.149 3.288-2.747 4.479v0c-1.464 1.091-2.87 1.57-4.218 1.435v0c-0.876-0.071-1.618-0.224-2.226-0.461-0.608-0.236-0.934-0.339-0.977-0.307v0c-0.091 0.068-0.107 0.442-0.049 1.122 0.058 0.68 0.099 1.443 0.123 2.29 0.029 0.843-0.189 1.799-0.654 2.869-0.46 1.066-1.19 1.972-2.19 2.717v0c-1.822 1.358-3.875 1.99-6.157 1.895-2.277-0.099-4.249-1.268-5.918-3.507v0c-1.306-1.753-2.041-3.329-2.203-4.73zM34.43 214.787v0c-1.662 1.239-2.633 2.781-2.911 4.626-0.284 1.849 0.177 3.584 1.384 5.203 1.207 1.619 2.611 2.472 4.213 2.559 1.602 0.086 3.052-0.355 4.351-1.323 1.299-0.968 2.026-2.703 2.182-5.204 0.16-2.496-0.034-4.111-0.58-4.843v0c-0.414-0.556-0.987-1.035-1.719-1.437-0.736-0.407-1.426-0.687-2.071-0.838-0.654-0.153-1.413-0.14-2.277 0.039-0.87 0.183-1.727 0.589-2.572 1.218zM54.533 208.684c-0.936-1.256-2.105-2.06-3.506-2.412-1.401-0.352-2.7-0.082-3.898 0.809-1.197 0.892-1.742 2.454-1.634 4.685 0.108 2.231 0.403 3.669 0.885 4.315 0.478 0.641 1.444 1.068 2.899 1.281 1.45 0.216 2.84-0.171 4.171-1.163v0c0.892-0.665 1.528-1.77 1.906-3.316 0.383-1.549 0.109-2.949-0.823-4.199z" fill="#094aa5" data-fill-palette-color="primary"></path><path d="M68.163 237.45v0l-1.493 2c-0.308 0.359-0.558 0.562-0.747 0.609-0.195 0.053-0.37 0.012-0.527-0.123-0.157-0.135-0.193-0.43-0.11-0.885 0.084-0.455 0.168-0.958 0.254-1.508 0.082-0.545 0.007-1.18-0.222-1.904-0.231-0.734-0.659-1.37-1.287-1.909-0.632-0.543-1.28-0.832-1.944-0.866-0.66-0.04-1.142 0.117-1.446 0.471-0.308 0.359-0.525 0.678-0.651 0.957-0.126 0.27-0.182 0.555-0.169 0.856 0.009 0.307 0.024 0.565 0.045 0.777 0.016 0.216 0.107 0.505 0.271 0.865 0.164 0.361 0.293 0.625 0.387 0.794 0.089 0.173 0.236 0.457 0.44 0.852v0c1.334 2.314 2 4.024 1.999 5.131-0.005 1.111-0.523 2.266-1.552 3.464-1.025 1.193-2.528 1.818-4.509 1.873v0c-1.309 0-2.626-0.569-3.951-1.706v0c-0.905-0.777-1.725-1.864-2.459-3.259v0c-0.205-0.396-0.328-0.62-0.37-0.674-0.047-0.058-0.111-0.157-0.193-0.297-0.076-0.136-0.136-0.235-0.179-0.299-0.042-0.054-0.088-0.137-0.139-0.251-0.046-0.11-0.074-0.195-0.084-0.256 0-0.061 0.006-0.14 0.018-0.236v0c0.025-0.163 0.138-0.36 0.338-0.593v0l2.351-2.737c0.2-0.233 0.415-0.386 0.646-0.461 0.231-0.074 0.429-0.04 0.596 0.104 0.167 0.143 0.247 0.296 0.241 0.457-0.012 0.157-0.111 0.41-0.297 0.76-0.191 0.345-0.308 0.609-0.351 0.792v0c-0.885 2.596-0.623 4.5 0.788 5.711v0c0.647 0.556 1.416 0.913 2.307 1.073 0.882 0.16 1.644-0.134 2.287-0.883 0.638-0.743 0.912-1.553 0.823-2.43-0.081-0.878-0.355-1.746-0.822-2.603-0.467-0.858-0.925-1.726-1.374-2.604-0.45-0.878-0.678-1.804-0.686-2.777-0.003-0.969 0.357-1.873 1.077-2.712v0c1.008-1.173 2.29-1.715 3.847-1.625 1.558 0.099 2.906 0.637 4.043 1.614 1.133 0.973 1.916 1.8 2.351 2.481 0.43 0.686 0.64 1.152 0.631 1.398-0.01 0.247-0.069 0.433-0.178 0.559z" fill="#094aa5" data-fill-palette-color="primary"></path><path d="M113.759 246.159v0l1.015-0.002c0.341 0.116 0.501 0.287 0.48 0.512v0c-0.532 3.354-0.895 5.315-1.089 5.883-0.192 0.561-0.47 0.78-0.836 0.654v0c-0.233-0.08-0.365-0.438-0.394-1.074-0.033-0.645-0.118-1.252-0.256-1.82-0.141-0.576-0.256-0.954-0.342-1.131-0.087-0.178-0.32-0.609-0.699-1.295v0c-0.984-1.738-2.388-2.917-4.211-3.54-1.817-0.62-3.411-0.724-4.785-0.313-1.365 0.408-2.262 1.242-2.693 2.504-0.428 1.255-0.45 2.371-0.065 3.348 0.377 0.981 1.033 1.863 1.97 2.647 0.928 0.789 1.919 1.567 2.974 2.336v0c2.826 2.078 4.727 4.174 5.702 6.289v0c0.664 1.48 0.709 3.059 0.137 4.737v0c-0.939 2.75-2.561 4.633-4.865 5.649-2.303 1.01-4.75 1.072-7.343 0.188v0c-1.81-0.618-3.231-1.212-4.262-1.783-1.037-0.572-2.029-1.358-2.977-2.357v0c-0.263-0.322-0.318-1.482-0.165-3.479 0.151-1.991 0.306-3.216 0.463-3.677 0.157-0.46 0.412-0.63 0.766-0.51 0.353 0.121 0.526 0.327 0.517 0.62v0c0.171 2.657 0.746 4.695 1.727 6.115v0c1.047 1.555 2.573 2.674 4.579 3.359 2 0.683 3.772 0.71 5.317 0.082 1.545-0.628 2.604-1.78 3.177-3.458v0c0.42-1.23 0.367-2.396-0.158-3.498-0.534-1.098-1.262-2.008-2.184-2.731v0c-3.457-2.645-5.74-4.611-6.85-5.899v0c-1.902-2.227-2.446-4.532-1.632-6.917 0.814-2.384 2.305-3.988 4.473-4.811 2.168-0.823 4.599-0.775 7.293 0.144v0c0.997 0.34 2.109 0.959 3.338 1.858 1.227 0.905 1.852 1.361 1.878 1.37z" fill="#094aa5" data-fill-palette-color="primary"></path><path d="M132.102 278.285c-2.427-0.174-4.437-1.067-6.032-2.678-1.588-1.617-2.281-3.839-2.078-6.664 0.203-2.832 1.154-5.143 2.853-6.932 1.693-1.796 3.782-2.605 6.268-2.427v0c1.157 0.083 2.199 0.365 3.127 0.846 0.921 0.487 1.622 1.045 2.105 1.674 0.483 0.629 0.88 1.289 1.191 1.98v0c0.524 1.174 0.765 2.05 0.724 2.628v0c-0.036 0.499-0.619 0.707-1.749 0.626v0l-10.641-0.763c-0.226-0.016-0.36-0.006-0.403 0.031-0.043 0.044-0.073 0.175-0.088 0.395v0c-0.186 2.593 0.366 4.684 1.655 6.273 1.282 1.595 2.864 2.461 4.745 2.596v0c1.157 0.083 2.359-0.145 3.607-0.684 1.241-0.532 1.891-0.796 1.952-0.792v0c0.273 0.02 0.4 0.152 0.382 0.398v0c-0.024 0.332-0.359 0.759-1.004 1.282-0.652 0.521-1.267 0.942-1.845 1.261v0c-1.384 0.763-2.974 1.08-4.769 0.95zM128.271 265.602v0l7.307 0.273c0.386 0.028 0.627 0.012 0.726-0.048 0.104-0.059 0.164-0.185 0.177-0.378v0c0.06-0.831-0.257-1.826-0.949-2.985-0.699-1.159-1.736-1.788-3.112-1.887-1.383-0.099-2.486 0.37-3.308 1.406-0.823 1.037-1.269 2.037-1.338 3.002v0c-0.028 0.386 0.138 0.591 0.497 0.617z" fill="#094aa5" data-fill-palette-color="primary"></path><path d="M163.004 275.363v0l-3.009 0.383c-0.708 0.131-1.643 0.334-2.806 0.61v0l-1.735 0.402c-0.413 0.076-0.642-0.007-0.687-0.25-0.046-0.249-0.005-0.413 0.123-0.49 0.128-0.078 0.29-0.152 0.488-0.222 0.198-0.064 0.38-0.179 0.546-0.345v0c0.457-0.423 0.56-1.462 0.309-3.118-0.246-1.663-0.417-2.753-0.512-3.27v0l-1.086-5.879c-0.16-0.865-0.425-1.419-0.795-1.663-0.37-0.243-0.827-0.315-1.372-0.215v0l-0.403 0.075c-0.518 0.096-0.805-0.007-0.86-0.309v0c-0.05-0.269 0.209-0.5 0.777-0.693 0.569-0.186 1.015-0.36 1.337-0.521 0.324-0.155 0.743-0.398 1.258-0.73 0.514-0.339 0.926-0.622 1.236-0.849 0.312-0.22 0.523-0.341 0.635-0.361v0l0.079-0.015c0.243-0.045 0.393 0.093 0.453 0.415v0l0.246 1.774c0.131 0.708 0.252 1.052 0.363 1.031 0.105-0.019 0.2-0.108 0.286-0.266v0c0.301-0.645 0.755-1.234 1.362-1.766v0c1.084-0.993 2.183-1.593 3.297-1.799 1.114-0.206 2.139-0.219 3.074-0.039 0.935 0.18 1.694 0.477 2.279 0.891 0.585 0.414 1.101 0.915 1.548 1.503v0c0.746 0.994 1.224 2.061 1.436 3.202v0l0.076 0.413 0.439 2.156 0.767 4.159c0.191 1.036 0.464 1.724 0.819 2.065 0.361 0.34 1.101 0.491 2.219 0.454v0c0.56-0.015 0.87 0.141 0.93 0.469v0c0.05 0.269-0.198 0.453-0.741 0.554v0l-3.381 0.41-3.115 0.749c-0.544 0.1-0.849-0.026-0.914-0.381v0c-0.045-0.243 0.089-0.437 0.4-0.582v0l0.51-0.216c0.561-0.3 0.691-1.27 0.388-2.908v0l-1.017-5.506c-0.387-2.097-1.198-3.588-2.432-4.471-1.234-0.884-2.503-1.205-3.808-0.965-1.304 0.241-2.334 0.756-3.089 1.547-0.757 0.784-1.18 1.465-1.27 2.044-0.09 0.579 0.2 2.681 0.87 6.305v0l0.285 1.544c0.252 1.363 0.579 2.347 0.982 2.95 0.408 0.596 1.112 0.845 2.11 0.749v0c0.269-0.05 0.621-0.067 1.058-0.053 0.444 0.02 0.686 0.138 0.726 0.354v0c0.065 0.354-0.161 0.579-0.679 0.674z" fill="#094aa5" data-fill-palette-color="primary"></path><path d="M183.766 253.906v0l-0.705 0.361c-0.434 0.189-0.729 0.103-0.886-0.257v0c-0.109-0.251-0.089-0.514 0.06-0.79v0c0.689-1.056 1.24-2.429 1.652-4.121v0c0.157-0.759 0.296-1.325 0.417-1.697 0.124-0.367 0.314-0.606 0.571-0.717 0.251-0.109 0.502 0.127 0.755 0.707v0c0 0 0.266 0.745 0.799 2.237v0c0.154 0.354 0.318 0.538 0.49 0.55 0.175 0.018 0.642-0.137 1.4-0.468v0l1.329-0.578c1.143-0.497 1.815-0.866 2.015-1.106v0c0.36-0.426 0.589-0.66 0.687-0.703v0c0.257-0.112 0.445-0.03 0.565 0.245v0c0.09 0.208 0.1 0.68 0.027 1.417-0.069 0.743-0.18 1.147-0.333 1.213v0c-1.143 0.497-1.954 0.821-2.434 0.972-0.476 0.142-0.793 0.24-0.951 0.294-0.158 0.054-0.298 0.101-0.42 0.139-0.121 0.038-0.207 0.068-0.255 0.09v0l-0.089-0.005c-0.483 0.21-0.761 0.422-0.836 0.636-0.074 0.214 0.005 0.587 0.236 1.118v0l2.934 7.141c0.718 1.65 1.426 2.709 2.123 3.176 0.704 0.464 1.728 0.404 3.072-0.181v0c0.532-0.231 1.068-0.61 1.61-1.137 0.544-0.52 0.841-0.791 0.889-0.812v0c0.251-0.109 0.448 0.001 0.592 0.331 0.144 0.33-0.103 0.957-0.741 1.882-0.635 0.93-1.459 1.616-2.473 2.057v0c-3.429 1.492-5.789 0.753-7.082-2.217v0l-0.251-0.577-3.702-8.933c-0.112-0.257-0.235-0.399-0.372-0.427-0.132-0.037-0.364 0.016-0.693 0.16z" fill="#094aa5" data-fill-palette-color="primary"></path><path d="M218.267 252.826l-2.5 1.566-2.412 1.699c-0.921 0.612-1.485 0.763-1.692 0.452-0.207-0.311-0.174-0.641 0.098-0.989v0c0.022-0.015 0.059-0.055 0.111-0.122v0c0.411-0.537 0.574-1.046 0.488-1.525-0.083-0.473-1.188-2.311-3.318-5.514v0l-2.025-3.047c-0.443-0.666-0.876-1.143-1.299-1.43-0.419-0.282-0.73-0.423-0.931-0.425-0.201-0.002-0.487 0.08-0.857 0.245-0.376 0.17-0.658 0.274-0.849 0.312-0.187 0.044-0.323 0.002-0.407-0.125-0.085-0.128-0.119-0.245-0.102-0.352 0.008-0.109 0.072-0.26 0.191-0.452 0.122-0.201 0.253-0.396 0.392-0.584v0c0.518-0.617 0.925-1.155 1.22-1.615 0.295-0.46 0.519-0.809 0.672-1.048 0.157-0.233 0.256-0.398 0.295-0.496v0c0.117-0.174 0.289-0.336 0.516-0.487v0c0.35-0.232 0.67-0.129 0.962 0.309v0l0.893 1.795 6.298 9.476c0.461 0.694 0.929 1.163 1.404 1.407 0.484 0.247 0.875 0.335 1.173 0.265 0.307-0.068 0.629-0.198 0.965-0.389 0.337-0.192 0.552-0.319 0.647-0.382v0c0.355-0.164 0.623-0.11 0.804 0.162v0c0.262 0.394 0.196 0.722-0.198 0.984v0zM202.842 236.212c-0.461 0.306-1.023 0.328-1.686 0.064-0.654-0.262-1.084-0.548-1.291-0.858-0.207-0.311-0.272-0.848-0.195-1.612 0.077-0.763 0.293-1.263 0.649-1.499 0.355-0.236 0.865-0.235 1.527 0.005 0.658 0.243 1.108 0.548 1.352 0.914 0.247 0.372 0.301 0.928 0.162 1.669-0.14 0.741-0.312 1.18-0.518 1.317z" fill="#094aa5" data-fill-palette-color="primary"></path><path d="M235.964 236.573v0l-2.216 2.073c-0.497 0.52-1.137 1.233-1.917 2.136v0l-1.172 1.342c-0.29 0.304-0.524 0.37-0.703 0.2-0.183-0.175-0.246-0.332-0.187-0.47 0.058-0.138 0.147-0.293 0.265-0.465 0.123-0.168 0.204-0.368 0.241-0.6v0c0.123-0.611-0.402-1.514-1.574-2.708-1.173-1.204-1.949-1.988-2.33-2.351v0l-4.322-4.131c-0.636-0.608-1.175-0.902-1.618-0.883-0.443 0.019-0.855 0.229-1.238 0.629v0l-0.283 0.296c-0.364 0.381-0.657 0.465-0.878 0.253v0c-0.198-0.189-0.123-0.528 0.224-1.016 0.352-0.484 0.612-0.886 0.779-1.205 0.172-0.315 0.369-0.758 0.593-1.329 0.218-0.575 0.387-1.046 0.505-1.412 0.124-0.361 0.225-0.583 0.303-0.664v0l0.056-0.058c0.17-0.178 0.374-0.155 0.609 0.071v0l1.239 1.295c0.52 0.497 0.82 0.705 0.898 0.623 0.074-0.077 0.099-0.205 0.076-0.384v0c-0.134-0.699-0.11-1.442 0.07-2.229v0c0.297-1.44 0.838-2.569 1.62-3.388 0.783-0.819 1.606-1.429 2.469-1.831 0.863-0.401 1.653-0.605 2.369-0.612 0.716-0.007 1.428 0.097 2.136 0.312v0c1.187 0.369 2.2 0.954 3.038 1.756v0l0.303 0.29 1.618 1.491 3.057 2.922c0.761 0.728 1.385 1.126 1.873 1.195 0.492 0.064 1.18-0.246 2.065-0.93v0c0.445-0.34 0.788-0.395 1.029-0.165v0c0.198 0.189 0.105 0.483-0.277 0.883v0l-2.501 2.312-2.088 2.43c-0.382 0.4-0.703 0.476-0.963 0.227v0c-0.178-0.17-0.184-0.406-0.016-0.706v0l0.286-0.474c0.279-0.572-0.183-1.434-1.388-2.585v0l-4.047-3.868c-1.542-1.474-3.072-2.208-4.59-2.202-1.518 0.006-2.735 0.488-3.651 1.448-0.916 0.959-1.45 1.98-1.6 3.062-0.155 1.078-0.099 1.878 0.168 2.401 0.266 0.522 1.732 2.056 4.396 4.603v0l1.135 1.084c1.002 0.958 1.843 1.564 2.523 1.817 0.68 0.244 1.396 0.034 2.149-0.628v0c0.189-0.198 0.464-0.418 0.827-0.662 0.372-0.244 0.637-0.29 0.796-0.139v0c0.26 0.249 0.208 0.563-0.156 0.944z" fill="#094aa5" data-fill-palette-color="primary"></path><path d="M258.067 208.413c-1.21 2.11-2.887 3.534-5.031 4.272-2.146 0.728-4.448 0.388-6.906-1.021-2.463-1.412-4.132-3.272-5.006-5.579-0.884-2.305-0.705-4.538 0.534-6.701v0c0.577-1.006 1.283-1.823 2.119-2.449 0.838-0.618 1.646-1.008 2.423-1.17 0.777-0.162 1.543-0.233 2.3-0.213v0c1.285 0.037 2.179 0.2 2.682 0.489v0c0.434 0.249 0.369 0.864-0.195 1.847v0l-5.307 9.254c-0.113 0.197-0.162 0.322-0.146 0.377 0.021 0.058 0.126 0.142 0.317 0.251v0c2.255 1.293 4.378 1.704 6.369 1.232 1.994-0.462 3.46-1.512 4.399-3.148v0c0.577-1.006 0.894-2.188 0.95-3.546 0.059-1.349 0.104-2.05 0.133-2.102v0c0.136-0.237 0.311-0.294 0.525-0.172v0c0.289 0.166 0.529 0.653 0.718 1.461 0.186 0.814 0.298 1.55 0.335 2.209v0c0.086 1.578-0.318 3.148-1.213 4.709zM244.977 206.359v0l3.419-6.465c0.192-0.335 0.283-0.56 0.271-0.674-0.008-0.12-0.096-0.228-0.263-0.324v0c-0.723-0.414-1.756-0.561-3.101-0.441-1.348 0.126-2.365 0.788-3.051 1.984-0.69 1.203-0.746 2.4-0.169 3.591 0.577 1.191 1.285 2.027 2.123 2.508v0c0.335 0.192 0.593 0.132 0.771-0.179z" fill="#094aa5" data-fill-palette-color="primary"></path><path d="M262.46 184.748l-2.916-0.958-16.711-5.669c-0.608-0.2-1.189-0.278-1.743-0.236-0.546 0.038-0.911 0.157-1.096 0.356-0.187 0.205-0.413 0.713-0.679 1.524v0c-0.096 0.291-0.235 0.407-0.419 0.346-0.184-0.06-0.307-0.122-0.371-0.185-0.068-0.071-0.112-0.181-0.134-0.328-0.02-0.154-0.028-0.332-0.025-0.534v0c0.093-0.818 0.077-1.697-0.049-2.637v0c-0.177-1.489-0.201-2.43-0.073-2.823v0c0.104-0.317 0.403-0.394 0.897-0.231v0c0.108 0.035 0.403 0.161 0.887 0.375v0c1.499 0.668 3.17 1.305 5.013 1.91v0l2.204 0.724 5.224 1.811 11.75 3.86c0.551 0.181 1.019 0.282 1.405 0.304 0.384 0.028 0.824-0.161 1.322-0.566 0.498-0.405 0.899-1.069 1.202-1.994v0c0.042-0.127 0.147-0.222 0.315-0.286 0.168-0.064 0.316-0.075 0.443-0.033v0c0.374 0.123 0.426 0.593 0.158 1.409v0l-1.583 3.89c-0.225 0.684-0.388 1.353-0.491 2.006-0.096 0.656-0.177 1.082-0.241 1.279-0.064 0.196-0.164 0.339-0.298 0.428-0.126 0.085-0.262 0.103-0.408 0.055-0.146-0.048-0.247-0.144-0.305-0.289-0.049-0.149-0.055-0.365-0.018-0.648v0c0.043-0.856-0.125-1.434-0.504-1.734-0.385-0.302-0.957-0.578-1.718-0.827v0z" fill="#094aa5" data-fill-palette-color="primary"></path><path d="M10.105 142.318c0-1.876 1.521-3.397 3.397-3.397 1.876 0 3.397 1.521 3.397 3.397 0 1.876-1.521 3.397-3.397 3.397-1.876 0-3.397-1.521-3.397-3.397z" fill="#094aa5" data-fill-palette-color="primary"></path><path d="M262.053 142.318c0-1.876 1.521-3.397 3.397-3.397 1.876 0 3.397 1.521 3.398 3.397 0 1.876-1.521 3.397-3.398 3.397-1.876 0-3.397-1.521-3.397-3.397z" fill="#094aa5" data-fill-palette-color="primary"></path></g></svg></g></svg></g></svg></g><g></g></svg></g><defs></defs></svg><rect width="280" height="280" fill="none" stroke="none" visibility="hidden"></rect></g></svg></g></svg>